Title                            : Saw 3D
Year                             : 2010
Genre                            : Crime | Horror | Mystery
iMDB URL                         : http://www.imdb.com/title/tt1477076/

Complete name                    : Saw.VII.2010.BRRIP.720P.H264-ZEKTORM.mp4
Format                           : MPEG-4
Format profile                   : Base Media
Codec ID                         : isom
File size                        : 2.24 GiB
Duration                         : 1h 30mn
Overall bit rate                 : 3570 Kbps
Subtitles                        : English (Format: srt)

Video
ID                               : 1
Format                           : AVC
Format/Info                      : Advanced Video Codec
Format profile                   : High@L4.0
Format settings, CABAC           : Yes
Format settings, ReFrames        : 5 frames
Codec ID                         : avc1
Codec ID/Info                    : Advanced Video Coding
Duration                         : 1h 30mn
Bit rate mode                    : Variable
Bit rate                         : 3130 Kbps
Width                            : 1280 pixels
Height                           : 720 pixels
Display aspect ratio             : 16/9
Frame rate mode                  : Constant
Frame rate                       : 23.976 fps
Resolution                       : 24 bits
Colorimetry                      : 4:2:0
Scan type                        : Progressive
Bits/(Pixel*Frame)               : 0.142
Stream size                      : 1.97 GiB (88%)
Title                            : Video
Writing library                  : x264

Audio
ID                               : 2
Format                           : AAC
Format/Info                      : Advanced Audio Codec
Format version                   : Version 4
Format profile                   : LC
Format settings, SBR             : No
Codec ID                         : 40
Duration                         : 1h 30mn
Bit rate mode                    : Variable
Bit rate                         : 440 Kbps
Maximum bit rate                 : 535 Kbps
Channel(s)                       : 6 channels
Channel positions                : Front: L C R, Rear: L R, LFE
Sampling rate                    : 48.0 KHz
Resolution                       : 16 bits
Stream size                      : 283 MiB (12%)
Language                         : English


Screenshots:
 
http://img3.imageshack.us/img3/1058/snaps1.png
 
http://img28.imageshack.us/img28/6115/snaps2.png
 
http://img522.imageshack.us/img522/3715/snaps3.png
 
http://img6.imageshack.us/img6/3786/snaps4.png

